<svg
  width="30"
  height="30"
  viewBox="0 0 30 30"
  fill="none"
  aria-hidden="true"
  xmlns="http://www.w3.org/2000/svg">
  <path
    d="M14 12C14 11.4385 14.0517 10.8884 14.1504 10.3545C12.3048 11.09 11 12.8921 11 15C11 17.7614 13.2386 20 16 20V22C12.134 22 9 18.866 9 15C9 11.134 12.134 8 16 8C16.4039 8 16.7994 8.0359 17.1846 8.10156C16.4362 9.2157 16 10.557 16 12C16 15.4618 18.5133 18.3341 21.8145 18.8975C20.5579 20.7684 18.4231 22 16 22V20C16.7471 20 17.4557 19.8352 18.0928 19.541C15.6296 17.9365 14 15.1612 14 12Z"
    fill="currentColor" />
</svg>
