<svg
  width="30"
  height="30"
  viewBox="0 0 30 30"
  fill="none"
  aria-hidden="true"
  xmlns="http://www.w3.org/2000/svg">
  <path
    d="M16 23H14V20H16V23ZM12.1719 19.2422L10.0508 21.3633L8.63672 19.9492L10.7578 17.8281L12.1719 19.2422ZM21.3672 19.9492L19.9531 21.3633L17.832 19.2422L19.2461 17.8281L21.3672 19.9492ZM15 11C17.2091 11 19 12.7909 19 15C19 17.2091 17.2091 19 15 19C12.7909 19 11 17.2091 11 15C11 12.7909 12.7909 11 15 11ZM15 13C13.8954 13 13 13.8954 13 15C13 16.1046 13.8954 17 15 17C16.1046 17 17 16.1046 17 15C17 13.8954 16.1046 13 15 13ZM10 16H7V14H10V16ZM23 16H20V14H23V16ZM12.1719 10.7578L10.7578 12.1719L8.63672 10.0508L10.0508 8.63672L12.1719 10.7578ZM21.3672 10.0508L19.2461 12.1719L17.832 10.7578L19.9531 8.63672L21.3672 10.0508ZM16 10H14V7H16V10Z"
    fill="currentColor" />
</svg>
