<svg
  width="30"
  height="30"
  viewBox="0 0 30 30"
  fill="none"
  aria-hidden="true"
  xmlns="http://www.w3.org/2000/svg">
  <path
    d="M18 20C18.5523 20 19 20.4477 19 21C19 21.5523 18.5523 22 18 22H12C11.4477 22 11 21.5523 11 21C11 20.4477 11.4477 20 12 20H18ZM20 8C21.1046 8 22 8.89543 22 10V17L21.9893 17.2041C21.8938 18.1457 21.1457 18.8938 20.2041 18.9893L20 19H10L9.7959 18.9893C8.85435 18.8938 8.1062 18.1457 8.01074 17.2041L8 17V10C8 8.89543 8.89543 8 10 8H20ZM10 17H20V10H10V17Z"
    fill="currentColor" />
</svg>
