<svg
  width="102"
  height="13"
  viewBox="0 0 102 13"
  fill="none"
  xmlns="http://www.w3.org/2000/svg">
  <g fill="currentColor">
    <path
      d="M92.679 11.9991V1.11914H95.239V11.9991H92.679ZM96.951 8.44714H94.551V6.41514H96.807C97.4256 6.41514 97.8843 6.26581 98.183 5.96714C98.4816 5.66847 98.631 5.27381 98.631 4.78314C98.631 4.28181 98.4816 3.88714 98.183 3.59914C97.8843 3.30047 97.447 3.15114 96.871 3.15114H94.551V1.11914H96.919C97.8256 1.11914 98.599 1.26314 99.239 1.55114C99.8896 1.83914 100.391 2.26047 100.743 2.81514C101.095 3.35914 101.271 4.00981 101.271 4.76714C101.271 5.94047 100.882 6.84714 100.103 7.48714C99.3243 8.12714 98.2736 8.44714 96.951 8.44714Z" />
    <path
      d="M78.4133 11.9991V1.11914H80.7813L80.9733 11.9991H78.4133ZM88.1733 11.9991L88.3653 1.11914H90.7333V11.9991H88.1733ZM85.5013 11.9991H83.6453L81.6453 6.65514L79.9493 1.11914H81.7893L84.1573 7.55114L84.7493 9.63114H84.4773L85.0853 7.55114L87.4533 1.11914H89.1973L87.4853 6.70314L85.5013 11.9991Z" />
    <path
      d="M69.0227 11.9991V1.11914H71.5827V11.9991H69.0227ZM70.8947 11.9991V9.96714H76.8307V11.9991H70.8947ZM70.8947 3.15114V1.11914H76.8307V3.15114H70.8947ZM70.8947 7.42314V5.43914H76.2067V7.42314H70.8947Z" />
    <path
      d="M61.9863 12.2553C60.8556 12.2553 59.8849 12.0259 59.0743 11.5673C58.2636 11.1086 57.6343 10.4579 57.1863 9.61528C56.7489 8.76195 56.5303 7.74862 56.5303 6.57528C56.5303 5.40195 56.7489 4.38861 57.1863 3.53528C57.6343 2.67128 58.2636 2.00995 59.0743 1.55128C59.8849 1.09261 60.8556 0.863281 61.9863 0.863281C63.1063 0.863281 64.0716 1.09261 64.8823 1.55128C65.6929 2.00995 66.3169 2.67128 66.7543 3.53528C67.2023 4.38861 67.4263 5.40195 67.4263 6.57528C67.4263 7.74862 67.2023 8.76195 66.7543 9.61528C66.3169 10.4579 65.6929 11.1086 64.8823 11.5673C64.0716 12.0259 63.1063 12.2553 61.9863 12.2553ZM61.9863 10.1593C62.5729 10.1593 63.0743 10.0153 63.4903 9.72728C63.9169 9.43928 64.2423 9.02862 64.4663 8.49528C64.6903 7.95128 64.8023 7.31128 64.8023 6.57528C64.8023 5.82862 64.6903 5.18862 64.4663 4.65528C64.2423 4.11128 63.9169 3.69528 63.4903 3.40728C63.0743 3.10862 62.5729 2.95928 61.9863 2.95928C61.3889 2.95928 60.8769 3.10862 60.4503 3.40728C60.0343 3.69528 59.7143 4.11128 59.4903 4.65528C59.2663 5.18862 59.1543 5.82862 59.1543 6.57528C59.1543 7.31128 59.2663 7.95128 59.4903 8.49528C59.7143 9.02862 60.0343 9.43928 60.4503 9.72728C60.8769 10.0153 61.3889 10.1593 61.9863 10.1593Z" />
    <path
      d="M50.0413 11.9991V1.11914H52.6173V11.9991H50.0413ZM46.6653 3.21514V1.11914H55.9933V3.21514H46.6653Z" />
    <path
      d="M39.9663 3.91928C39.9663 4.20728 40.0569 4.43661 40.2383 4.60728C40.4196 4.77795 40.6596 4.91662 40.9583 5.02328C41.2676 5.12995 41.6089 5.22061 41.9823 5.29528C42.3663 5.35928 42.7609 5.43395 43.1663 5.51928C43.5716 5.60461 43.9609 5.71662 44.3343 5.85528C44.7183 5.99395 45.0649 6.18062 45.3743 6.41528C45.6836 6.64995 45.9236 6.95395 46.0943 7.32728C46.2756 7.70061 46.3663 8.16461 46.3663 8.71928C46.3663 9.46595 46.1743 10.1059 45.7903 10.6393C45.4169 11.1619 44.8996 11.5619 44.2383 11.8393C43.5769 12.1166 42.8196 12.2553 41.9663 12.2553C41.1129 12.2553 40.3449 12.1219 39.6623 11.8553C38.9903 11.5886 38.4356 11.1833 37.9983 10.6393C37.5716 10.0953 37.2943 9.41262 37.1663 8.59128H39.8703C39.9769 9.12462 40.2116 9.53528 40.5743 9.82328C40.9369 10.1113 41.4063 10.2553 41.9823 10.2553C42.5689 10.2553 43.0063 10.1486 43.2943 9.93528C43.5929 9.71128 43.7423 9.41262 43.7423 9.03928C43.7423 8.74062 43.6516 8.49528 43.4703 8.30328C43.2889 8.11128 43.0436 7.96195 42.7343 7.85528C42.4356 7.73795 42.0943 7.64195 41.7103 7.56728C41.3369 7.48195 40.9476 7.39128 40.5423 7.29528C40.1369 7.19928 39.7423 7.08195 39.3583 6.94328C38.9849 6.80462 38.6436 6.62328 38.3343 6.39928C38.0249 6.16461 37.7796 5.87128 37.5983 5.51928C37.4169 5.15661 37.3263 4.70328 37.3263 4.15928C37.3263 3.55128 37.4916 2.99661 37.8223 2.49528C38.1529 1.99395 38.6276 1.59928 39.2463 1.31128C39.8756 1.01261 40.6329 0.863281 41.5183 0.863281C42.2756 0.863281 42.9796 0.991281 43.6303 1.24728C44.2809 1.49261 44.8196 1.87661 45.2463 2.39928C45.6836 2.92195 45.9556 3.60462 46.0623 4.44728H43.3263C43.2196 3.90328 43.0063 3.50328 42.6863 3.24728C42.3663 2.99128 41.9449 2.86328 41.4223 2.86328C40.9743 2.86328 40.6169 2.95928 40.3503 3.15128C40.0943 3.34328 39.9663 3.59928 39.9663 3.91928Z" />
    <path
      d="M27.2571 11.9991V1.11914H29.8171V11.9991H27.2571ZM32.2171 11.9991H29.1291V9.96714H32.1531C32.6331 9.96714 33.0011 9.84981 33.2571 9.61514C33.5131 9.38047 33.6411 9.06581 33.6411 8.67114C33.6411 8.29781 33.5077 7.99381 33.2411 7.75914C32.9744 7.51381 32.5851 7.39114 32.0731 7.39114H29.1291V5.53514H31.5611C32.0517 5.53514 32.4144 5.42847 32.6491 5.21514C32.8944 4.99114 33.0171 4.70847 33.0171 4.36714C33.0171 3.99381 32.8944 3.70047 32.6491 3.48714C32.4144 3.26314 32.0677 3.15114 31.6091 3.15114H29.1291V1.11914H31.6731C32.8997 1.11914 33.8704 1.40181 34.5851 1.96714C35.2997 2.52181 35.6571 3.26847 35.6571 4.20714C35.6571 4.82581 35.4651 5.34314 35.0811 5.75914C34.7077 6.16447 34.2011 6.43647 33.5611 6.57514V6.03114C34.4251 6.15914 35.0917 6.46314 35.5611 6.94314C36.0304 7.41247 36.2651 8.02581 36.2651 8.78314C36.2651 9.80714 35.9131 10.6018 35.2091 11.1671C34.5051 11.7218 33.5077 11.9991 32.2171 11.9991Z" />
    <path
      d="M17.8665 11.9991V1.11914H20.4265V11.9991H17.8665ZM19.7385 11.9991V9.96714H25.6745V11.9991H19.7385ZM19.7385 3.15114V1.11914H25.6745V3.15114H19.7385ZM19.7385 7.42314V5.43914H25.0505V7.42314H19.7385Z" />
    <path
      d="M10.4959 11.9991L8.71994 5.74314L8.35194 4.12714H8.55994L8.19194 5.74314L6.43194 11.9991H3.55194L0.335938 1.11914H3.07194L4.81594 8.25514L5.21594 10.0151H5.00794L5.39194 8.25514L7.40794 1.11914H9.64794L11.6479 8.25514L12.0479 10.0151H11.8399L12.2239 8.25514L13.9679 1.11914H16.5599L13.3439 11.9991H10.4959Z" />
  </g>
</svg>
