<svg
  width="103"
  height="13"
  viewBox="0 0 103 13"
  fill="none"
  xmlns="http://www.w3.org/2000/svg">
  <path
    d="M42.0117 0.0175781C42.9937 0.0176254 43.8291 0.178927 44.5176 0.501953C45.2061 0.82502 45.7318 1.27073 46.0947 1.83887C46.4577 2.4014 46.647 3.03905 46.6631 3.75195H43.9414C43.9094 3.38997 43.805 3.10002 43.6289 2.88281C43.4528 2.66008 43.2198 2.49644 42.9316 2.39062C42.6436 2.2849 42.3103 2.23148 41.9316 2.23145C41.2964 2.23145 40.8391 2.35998 40.5615 2.61621C40.2843 2.87225 40.1456 3.15613 40.1455 3.46777C40.1455 3.77953 40.255 4.03585 40.4736 4.23633C40.6924 4.43679 41.0556 4.58724 41.5625 4.6875L43.4287 5.06348C44.208 5.20273 44.8404 5.44021 45.3262 5.77441C45.8172 6.10305 46.1777 6.50956 46.4072 6.99414C46.642 7.47308 46.7597 8.01605 46.7598 8.62305C46.7598 9.3806 46.5487 10.0441 46.127 10.6123C45.7107 11.1802 45.1422 11.623 44.4219 11.9404C43.7013 12.2579 42.8735 12.417 41.9395 12.417C41.3524 12.417 40.7757 12.3417 40.21 12.1914C39.6441 12.0354 39.1235 11.8034 38.6484 11.4971C38.1788 11.1852 37.7915 10.7959 37.4873 10.3281C37.183 9.86023 37.0046 9.31108 36.9512 8.68164H39.7373C39.8067 9.01028 39.9427 9.2892 40.1455 9.51758C40.3483 9.74033 40.6154 9.91263 40.9463 10.0352C41.2772 10.1521 41.6619 10.2109 42.0996 10.2109C42.409 10.2109 42.7105 10.1694 43.0039 10.0859C43.2973 9.99686 43.5403 9.8572 43.7324 9.66797C43.9245 9.47863 44.0214 9.22783 44.0215 8.91602C44.0215 8.53724 43.8796 8.26379 43.5967 8.09668C43.3138 7.92404 42.9533 7.79097 42.5156 7.69629L40.4424 7.26172C39.7911 7.12803 39.227 6.91563 38.752 6.62598C38.2825 6.33636 37.9192 5.95474 37.6631 5.48145C37.4123 5.00805 37.2871 4.43681 37.2871 3.76855C37.2872 2.98329 37.4958 2.31183 37.9121 1.75488C38.3284 1.19251 38.8918 0.763895 39.6016 0.46875C40.3168 0.16803 41.1204 0.0175781 42.0117 0.0175781ZM62.7871 0C63.8866 0 64.842 0.256231 65.6533 0.768555C66.47 1.27544 67.1034 1.99458 67.5518 2.9248C68.0053 3.85492 68.2324 4.95805 68.2324 6.2334C68.2324 7.49766 68.0104 8.59204 67.5674 9.5166C67.1243 10.4413 66.4945 11.1572 65.6777 11.6641C64.861 12.1654 63.8974 12.416 62.7871 12.416C61.6663 12.416 60.695 12.1652 59.873 11.6641C59.0563 11.1572 58.423 10.4413 57.9746 9.5166C57.5263 8.59207 57.3028 7.49761 57.3027 6.2334C57.3027 4.95789 57.5297 3.855 57.9834 2.9248C58.4371 1.99459 59.0744 1.27544 59.8965 0.768555C60.7239 0.256102 61.6875 7.42317e-06 62.7871 0ZM5.45605 7.39355L7.39355 0.166016H9.33203L11.3174 7.39355L13.2549 0.166016H15.9053L12.4629 12.248H10.3643L8.3623 5.0127L6.34473 12.248H4.2793L0.828125 0.166016H3.47852L5.45605 7.39355ZM25.1084 2.53906H19.6162V5.00391H24.2998V7.32715H19.5996V9.85059L25.1729 9.8584V12.248H16.8691V0.166016H25.125L25.1084 2.53906ZM31.0723 0.166016C32.6415 0.166016 33.7946 0.439556 34.5312 0.985352C35.2679 1.53122 35.6367 2.31916 35.6367 3.34961C35.6367 3.92334 35.4948 4.43007 35.2119 4.87012C34.9343 5.30458 34.4305 5.69791 33.6992 6.04883C34.1901 6.18805 34.5825 6.37134 34.876 6.59961C35.1749 6.82799 35.3969 7.07638 35.541 7.34375C35.6903 7.61094 35.7889 7.8838 35.8369 8.16211C35.885 8.44062 35.9092 8.70861 35.9092 8.96484C35.9091 10.0843 35.5487 10.9116 34.8281 11.4463C34.1075 11.981 32.9303 12.248 31.2969 12.248H26.6611V0.166016H31.0723ZM56.7988 2.68164H53.4355V12.248H50.6973V2.68164H47.3105V0.166016H56.7988V2.68164ZM77.9102 2.53906H72.418V5.00391H77.1016V7.32715H72.4014V9.85059L77.9746 9.8584V12.248H69.6709V0.166016H77.9268L77.9102 2.53906ZM85.7471 8.1543L88.0293 0.166016H92.0244V12.248H89.2861V3.24902L86.7637 12.248H84.7295L82.208 3.27441V12.248H79.4697V0.166016H83.4893L85.7471 8.1543ZM98.3516 0.166016C99.1949 0.166016 99.9559 0.321918 100.634 0.633789C101.312 0.945721 101.846 1.4033 102.235 2.00488C102.63 2.60079 102.828 3.33023 102.828 4.19336C102.828 4.98989 102.657 5.67529 102.315 6.24902C101.979 6.81719 101.501 7.25418 100.882 7.56055C100.268 7.86131 99.5421 8.01172 98.7041 8.01172H96.6621V12.248H93.9238V0.166016H98.3516ZM62.7871 2.30566C62.2908 2.30567 61.856 2.43982 61.4824 2.70703C61.1088 2.97437 60.8151 3.4006 60.6016 3.98535C60.3934 4.56456 60.2891 5.32768 60.2891 6.27441C60.2891 7.19907 60.3934 7.94327 60.6016 8.50586C60.8151 9.06834 61.1088 9.47818 61.4824 9.73438C61.856 9.98481 62.2909 10.1103 62.7871 10.1104C63.2835 10.1104 63.7191 9.98504 64.0928 9.73438C64.4663 9.47816 64.7542 9.06832 64.957 8.50586C65.1652 7.94327 65.2695 7.19907 65.2695 6.27441C65.2695 5.3223 65.1651 4.55671 64.957 3.97754C64.7488 3.39267 64.4576 2.96883 64.084 2.70703C63.7104 2.43978 63.2781 2.30566 62.7871 2.30566ZM29.3916 10.084H31.3848C31.9613 10.084 32.3968 9.94775 32.6904 9.6748C32.9893 9.39632 33.1387 9.05305 33.1387 8.64648C33.1386 8.35704 33.0659 8.1093 32.9219 7.90332C32.7831 7.6918 32.5886 7.53031 32.3379 7.41895C32.0925 7.30202 31.8069 7.24322 31.4814 7.24316H29.3916V10.084ZM96.6387 5.85645H98.624C99.1098 5.85645 99.5103 5.67778 99.8252 5.32129C100.145 4.95926 100.306 4.53307 100.306 4.04297C100.306 3.53617 100.135 3.12088 99.793 2.79785C99.4567 2.46938 99.0586 2.30566 98.5996 2.30566H96.6387V5.85645ZM29.3916 5.02051H31.4814C31.6999 5.02047 31.8998 4.99306 32.0811 4.9375C32.2624 4.88183 32.4228 4.79783 32.5615 4.68652C32.7003 4.57512 32.8106 4.43887 32.8906 4.27734C32.9707 4.11024 33.0107 3.92065 33.0107 3.70898C33.0107 3.26895 32.853 2.92897 32.5381 2.68945C32.2231 2.44993 31.8276 2.33008 31.3525 2.33008H29.3916V5.02051Z"
    fill="currentColor" />
</svg>
