<svg width="103" height="13" viewBox="0 0 103 13" fill="none" xmlns="http://www.w3.org/2000/svg">
  <g fill="white">
    <path d="M10.82 12L9.23599 6.30403L8.85199 4.52803H9.07599L8.69199 6.30403L7.12399 12H3.89199L0.73999 1.12003H3.85999L5.34799 7.82403L5.74799 9.74403H5.53999L5.97199 7.82403L7.82799 1.12003H10.276L12.116 7.82403L12.548 9.74403H12.356L12.74 7.82403L14.228 1.12003H17.188L14.036 12H10.82Z" />
    <path d="M18.3019 12V1.12003H21.2299V12H18.3019ZM20.4459 12V9.69603H26.2539V12H20.4459ZM20.4459 3.42403V1.12003H26.2539V3.42403H20.4459ZM20.4459 7.56803V5.32803H25.6139V7.56803H20.4459Z" />
    <path d="M27.7237 12V1.12003H30.6517V12H27.7237ZM32.8757 12H29.8677V9.71203H32.7957C33.2117 9.71203 33.5211 9.6107 33.7237 9.40803C33.9371 9.1947 34.0437 8.92803 34.0437 8.60803C34.0437 8.2987 33.9371 8.0427 33.7237 7.84003C33.5211 7.6267 33.2011 7.52003 32.7637 7.52003H29.8677V5.44003H32.2037C32.6304 5.44003 32.9397 5.34936 33.1317 5.16803C33.3237 4.97603 33.4197 4.73603 33.4197 4.44803C33.4197 4.12803 33.3237 3.87736 33.1317 3.69603C32.9397 3.50403 32.6517 3.40803 32.2677 3.40803H29.8677V1.12003H32.3317C33.6011 1.12003 34.5984 1.40803 35.3237 1.98403C36.0491 2.54936 36.4117 3.31203 36.4117 4.27203C36.4117 4.88003 36.2251 5.3867 35.8517 5.79203C35.4891 6.19736 35.0037 6.46936 34.3957 6.60803L34.4117 5.98403C35.2437 6.1227 35.8891 6.4267 36.3477 6.89603C36.8064 7.36536 37.0357 7.97336 37.0357 8.72003C37.0357 9.77603 36.6784 10.5867 35.9637 11.152C35.2491 11.7174 34.2197 12 32.8757 12Z" />
    <path d="M40.9415 3.95203C40.9415 4.2187 41.0268 4.43203 41.1975 4.59203C41.3788 4.74136 41.6188 4.86403 41.9175 4.96003C42.2268 5.04536 42.5682 5.12536 42.9415 5.20003C43.3148 5.26403 43.6988 5.3387 44.0935 5.42403C44.4988 5.50936 44.8882 5.6267 45.2615 5.77603C45.6348 5.9147 45.9708 6.1067 46.2695 6.35203C46.5788 6.5867 46.8188 6.8907 46.9895 7.26403C47.1708 7.63736 47.2615 8.10136 47.2615 8.65603C47.2615 9.42403 47.0642 10.08 46.6695 10.624C46.2855 11.1574 45.7522 11.568 45.0695 11.856C44.3868 12.144 43.6082 12.288 42.7335 12.288C41.8482 12.288 41.0588 12.1494 40.3655 11.872C39.6722 11.5947 39.1015 11.1787 38.6535 10.624C38.2055 10.0587 37.9228 9.34937 37.8055 8.49603H40.8775C40.9628 8.9867 41.1708 9.36536 41.5015 9.63203C41.8322 9.8987 42.2535 10.032 42.7655 10.032C43.2668 10.032 43.6402 9.9467 43.8855 9.77603C44.1415 9.5947 44.2695 9.34403 44.2695 9.02403C44.2695 8.7467 44.1788 8.52803 43.9975 8.36803C43.8268 8.19736 43.5868 8.06403 43.2775 7.96803C42.9788 7.86136 42.6428 7.7707 42.2695 7.69603C41.8962 7.6107 41.5068 7.52003 41.1015 7.42403C40.7068 7.32803 40.3228 7.2107 39.9495 7.07203C39.5762 6.9227 39.2402 6.7307 38.9415 6.49603C38.6428 6.26136 38.4028 5.9627 38.2215 5.60003C38.0402 5.23737 37.9495 4.78936 37.9495 4.25603C37.9495 3.61603 38.1202 3.04003 38.4615 2.52803C38.8028 2.00536 39.2935 1.5947 39.9335 1.29603C40.5842 0.986698 41.3735 0.832031 42.3015 0.832031C43.0695 0.832031 43.7842 0.960031 44.4455 1.21603C45.1175 1.47203 45.6775 1.87203 46.1255 2.41603C46.5735 2.94936 46.8508 3.64803 46.9575 4.51203H43.8375C43.7415 4.03203 43.5548 3.6747 43.2775 3.44003C43.0108 3.20536 42.6428 3.08803 42.1735 3.08803C41.8002 3.08803 41.5015 3.16803 41.2775 3.32803C41.0535 3.47736 40.9415 3.68536 40.9415 3.95203Z" />
    <path d="M50.7566 12V1.12003H53.6686V12H50.7566ZM47.4926 3.48803V1.12003H56.9326V3.48803H47.4926Z" />
    <path d="M63.0022 12.288C61.8609 12.288 60.8742 12.0587 60.0422 11.6C59.2209 11.1307 58.5809 10.4694 58.1222 9.61603C57.6742 8.7627 57.4502 7.74936 57.4502 6.57603C57.4502 5.39203 57.6742 4.37336 58.1222 3.52003C58.5809 2.65603 59.2209 1.9947 60.0422 1.53603C60.8742 1.0667 61.8609 0.832031 63.0022 0.832031C64.1436 0.832031 65.1302 1.0667 65.9622 1.53603C66.7942 1.9947 67.4342 2.65603 67.8822 3.52003C68.3302 4.37336 68.5542 5.39203 68.5542 6.57603C68.5542 7.74936 68.3302 8.7627 67.8822 9.61603C67.4342 10.4694 66.7942 11.1307 65.9622 11.6C65.1302 12.0587 64.1436 12.288 63.0022 12.288ZM63.0022 9.90403C63.5462 9.90403 64.0049 9.7707 64.3782 9.50403C64.7622 9.23736 65.0556 8.8587 65.2582 8.36803C65.4609 7.8667 65.5622 7.26937 65.5622 6.57603C65.5622 5.87203 65.4609 5.26936 65.2582 4.76803C65.0556 4.2667 64.7622 3.8827 64.3782 3.61603C64.0049 3.34936 63.5462 3.21603 63.0022 3.21603C62.4582 3.21603 61.9942 3.34936 61.6102 3.61603C61.2369 3.8827 60.9489 4.2667 60.7462 4.76803C60.5436 5.26936 60.4422 5.87203 60.4422 6.57603C60.4422 7.26937 60.5436 7.8667 60.7462 8.36803C60.9489 8.8587 61.2369 9.23736 61.6102 9.50403C61.9942 9.7707 62.4582 9.90403 63.0022 9.90403Z" />
    <path d="M69.9894 12V1.12003H72.9174V12H69.9894ZM72.1334 12V9.69603H77.9414V12H72.1334ZM72.1334 3.42403V1.12003H77.9414V3.42403H72.1334ZM72.1334 7.56803V5.32803H77.3014V7.56803H72.1334Z" />
    <path d="M79.4112 12V1.12003H82.0832L82.3392 12H79.4112ZM89.1392 12L89.3952 1.12003H92.0672V12H89.1392ZM86.7872 12H84.6752L82.9632 7.16803L81.1872 1.12003H83.2192L85.2832 7.05603L85.9232 9.39203H85.6512L86.2912 7.05603L88.3552 1.12003H90.2912L88.4832 7.21603L86.7872 12Z" />
    <path d="M93.8331 12V1.12003H96.7611V12H93.8331ZM98.2811 8.57603H95.9771V6.27203H98.1211C98.6865 6.27203 99.0918 6.14403 99.3371 5.88803C99.5825 5.62136 99.7051 5.2747 99.7051 4.84803C99.7051 4.4107 99.5771 4.06403 99.3211 3.80803C99.0758 3.55203 98.7025 3.42403 98.2011 3.42403H95.9771V1.12003H98.2491C99.1771 1.12003 99.9718 1.26936 100.633 1.56803C101.294 1.85603 101.801 2.27736 102.153 2.83203C102.516 3.3867 102.697 4.0587 102.697 4.84803C102.697 6.03203 102.297 6.94936 101.497 7.60003C100.708 8.2507 99.6358 8.57603 98.2811 8.57603Z" />
  </g>
</svg>