<svg
  width="109"
  height="13"
  viewBox="0 0 109 13"
  fill="none"
  xmlns="http://www.w3.org/2000/svg">
  <g fill="currentColor">
    <path
      d="M99.1846 12.2029V0.742188H101.924V12.2029H99.1846ZM103.756 8.46129H101.188V6.32084H103.602C104.263 6.32084 104.754 6.16354 105.074 5.84893C105.393 5.53432 105.553 5.11859 105.553 4.60174C105.553 4.07365 105.393 3.65792 105.074 3.35455C104.754 3.03994 104.286 2.88264 103.67 2.88264H101.188V0.742188H103.721C104.691 0.742188 105.519 0.893873 106.204 1.19724C106.9 1.50061 107.436 1.94443 107.813 2.5287C108.19 3.10174 108.378 3.78713 108.378 4.58488C108.378 5.82084 107.961 6.7759 107.128 7.45005C106.295 8.12421 105.171 8.46129 103.756 8.46129Z" />
    <path
      d="M83.9202 12.2029V0.742188H86.4539L86.6593 12.2029H83.9202ZM94.3633 12.2029L94.5687 0.742188H97.1025V12.2029H94.3633ZM91.5043 12.2029H89.5184L87.3784 6.57365L85.5637 0.742188H87.5325L90.0662 7.51747L90.6996 9.70848H90.4086L91.0592 7.51747L93.5929 0.742188H95.459L93.6272 6.62421L91.5043 12.2029Z" />
    <path
      d="M73.8726 12.2029V0.742188H76.6117V12.2029H73.8726ZM75.8756 12.2029V10.0624H82.2271V12.2029H75.8756ZM75.8756 2.88264V0.742188H82.2271V2.88264H75.8756ZM75.8756 7.38264V5.29275H81.5594V7.38264H75.8756Z" />
    <path
      d="M66.3435 12.4727C65.1337 12.4727 64.0951 12.2311 63.2277 11.7479C62.3603 11.2648 61.6869 10.5794 61.2075 9.69176C60.7396 8.79288 60.5056 7.72547 60.5056 6.48951C60.5056 5.25356 60.7396 4.18614 61.2075 3.28726C61.6869 2.37715 62.3603 1.68052 63.2277 1.19738C64.0951 0.714229 65.1337 0.472656 66.3435 0.472656C67.5419 0.472656 68.5748 0.714229 69.4422 1.19738C70.3096 1.68052 70.9773 2.37715 71.4452 3.28726C71.9246 4.18614 72.1643 5.25356 72.1643 6.48951C72.1643 7.72547 71.9246 8.79288 71.4452 9.69176C70.9773 10.5794 70.3096 11.2648 69.4422 11.7479C68.5748 12.2311 67.5419 12.4727 66.3435 12.4727ZM66.3435 10.2648C66.9712 10.2648 67.5077 10.1131 67.9528 9.80974C68.4093 9.50636 68.7574 9.07378 68.9971 8.51198C69.2368 7.93895 69.3566 7.26479 69.3566 6.48951C69.3566 5.70299 69.2368 5.02884 68.9971 4.46704C68.7574 3.894 68.4093 3.4558 67.9528 3.15243C67.5077 2.83783 66.9712 2.68052 66.3435 2.68052C65.7044 2.68052 65.1565 2.83783 64.7 3.15243C64.2549 3.4558 63.9125 3.894 63.6728 4.46704C63.4331 5.02884 63.3133 5.70299 63.3133 6.48951C63.3133 7.26479 63.4331 7.93895 63.6728 8.51198C63.9125 9.07378 64.2549 9.50636 64.7 9.80974C65.1565 10.1131 65.7044 10.2648 66.3435 10.2648Z" />
    <path
      d="M53.5623 12.2029V0.742188H56.3186V12.2029H53.5623ZM49.95 2.95005V0.742188H59.9309V2.95005H49.95Z" />
    <path
      d="M42.7821 3.69176C42.7821 3.99513 42.8791 4.2367 43.0732 4.41648C43.2672 4.59625 43.524 4.74232 43.8435 4.85468C44.1745 4.96704 44.5398 5.06254 44.9392 5.1412C45.3501 5.20861 45.7724 5.28726 46.2061 5.37715C46.6398 5.46704 47.0564 5.58502 47.4558 5.73108C47.8667 5.87715 48.2377 6.07378 48.5686 6.32097C48.8996 6.56816 49.1564 6.88839 49.339 7.28164C49.5331 7.6749 49.6301 8.16367 49.6301 8.74794C49.6301 9.53445 49.4246 10.2086 49.0138 10.7704C48.6143 11.321 48.0608 11.7423 47.3531 12.0345C46.6455 12.3266 45.8352 12.4727 44.9221 12.4727C44.009 12.4727 43.1873 12.3322 42.4568 12.0513C41.7378 11.7704 41.1443 11.3434 40.6764 10.7704C40.2198 10.1974 39.9231 9.47827 39.7861 8.61311H42.6794C42.7935 9.1749 43.0446 9.60749 43.4327 9.91086C43.8207 10.2142 44.3229 10.3659 44.9392 10.3659C45.567 10.3659 46.0349 10.2536 46.3431 10.0288C46.6626 9.79288 46.8224 9.47827 46.8224 9.08502C46.8224 8.77041 46.7254 8.51198 46.5314 8.30974C46.3373 8.10749 46.0748 7.95018 45.7439 7.83783C45.4243 7.71423 45.0591 7.61311 44.6482 7.53445C44.2487 7.44457 43.8321 7.34906 43.3984 7.24794C42.9647 7.14681 42.5424 7.02322 42.1316 6.87715C41.7321 6.73108 41.3669 6.54007 41.0359 6.30412C40.7049 6.05693 40.4424 5.74794 40.2484 5.37715C40.0543 4.99513 39.9573 4.5176 39.9573 3.94457C39.9573 3.30412 40.1342 2.71985 40.488 2.19176C40.8419 1.66367 41.3498 1.24794 42.0117 0.944567C42.6851 0.62996 43.4954 0.472656 44.4427 0.472656C45.2531 0.472656 46.0064 0.607488 46.7026 0.877151C47.3988 1.13558 47.9752 1.54007 48.4317 2.09063C48.8996 2.6412 49.1907 3.3603 49.3048 4.24794H46.3773C46.2632 3.6749 46.0349 3.25356 45.6925 2.98389C45.3501 2.71423 44.8993 2.5794 44.34 2.5794C43.8607 2.5794 43.4783 2.68052 43.193 2.88277C42.9191 3.08502 42.7821 3.35468 42.7821 3.69176Z" />
    <path
      d="M29.1833 12.2029V0.742188H31.9225V12.2029H29.1833ZM34.4905 12.2029H31.1864V10.0624H34.422C34.9356 10.0624 35.3294 9.93882 35.6033 9.69163C35.8772 9.44443 36.0142 9.11297 36.0142 8.69724C36.0142 8.30399 35.8715 7.98376 35.5862 7.73657C35.3009 7.47814 34.8843 7.34893 34.3364 7.34893H31.1864V5.39387H33.7886C34.3136 5.39387 34.7017 5.28151 34.9528 5.05679C35.2153 4.82084 35.3465 4.52309 35.3465 4.16354C35.3465 3.77028 35.2153 3.46129 34.9528 3.23657C34.7017 3.00061 34.3307 2.88264 33.84 2.88264H31.1864V0.742188H33.9084C35.221 0.742188 36.2596 1.03994 37.0243 1.63545C37.789 2.21971 38.1713 3.00623 38.1713 3.995C38.1713 4.64668 37.9659 5.19163 37.555 5.62983C37.1555 6.05679 36.6134 6.34331 35.9286 6.48938V5.91634C36.8531 6.05118 37.5664 6.3714 38.0686 6.87702C38.5708 7.3714 38.8219 8.01747 38.8219 8.81522C38.8219 9.89387 38.4452 10.731 37.6919 11.3265C36.9387 11.9107 35.8715 12.2029 34.4905 12.2029Z" />
    <path
      d="M19.1357 12.2029V0.742188H21.8749V12.2029H19.1357ZM21.1388 12.2029V10.0624H27.4903V12.2029H21.1388ZM21.1388 2.88264V0.742188H27.4903V2.88264H21.1388ZM21.1388 7.38264V5.29275H26.8226V7.38264H21.1388Z" />
    <path
      d="M11.2491 12.2029L9.34876 5.61297L8.955 3.91073H9.17756L8.7838 5.61297L6.90061 12.2029H3.81903L0.37793 0.742188H3.30543L5.1715 8.25904L5.5995 10.113H5.37694L5.78782 8.25904L7.94493 0.742188H10.3417L12.4817 8.25904L12.9097 10.113H12.6871L13.098 8.25904L14.9641 0.742188H17.7375L14.2964 12.2029H11.2491Z" />
  </g>
</svg>
