<svg
  width="108"
  height="45"
  viewBox="0 0 108 45"
  fill="none"
  role="img"
  title="webstoemp"
  xmlns="http://www.w3.org/2000/svg">
  <g fill="currentColor">
    <path
      d="M69.6665 7.64264C69.6727 7.64591 69.3882 8.28993 65.0222 9.59155C64.4908 9.74877 63.9562 9.91254 63.4689 10.1844C62.1514 10.9214 61.3621 12.3593 60.642 13.7252C62.5287 14.5408 64.8272 14.1674 66.5158 15.3597C68.2075 16.5552 68.7043 19.0347 68.1792 21.0917C67.654 23.1487 66.3145 24.8684 64.9279 26.4308C64.2015 27.2464 63.4343 28.0587 62.4784 28.5533C61.5225 29.0479 60.3339 29.192 59.4 28.6548C58.158 27.9473 57.7115 26.2997 57.7303 24.8258C57.7492 23.3518 58.1139 21.8844 57.9819 20.417C56.5732 23.0931 55.1614 25.7691 53.7527 28.4485C53.4854 28.9562 53.1835 29.4999 52.6741 29.7357C51.6805 30.1976 50.5359 29.1167 50.4416 27.9866C50.3473 26.8566 50.9353 25.7986 51.5013 24.8323C52.7936 22.6247 54.086 20.417 55.3783 18.2093C53.8816 19.2476 52.4886 20.4497 51.2277 21.7829C50.7781 22.2578 50.3378 22.7622 50.0643 23.3682C49.7876 23.9774 49.6932 24.6587 49.5832 25.3237C49.3788 26.5749 49.0958 27.8458 48.4135 28.8972C47.7311 29.9486 46.5677 30.7413 45.354 30.6332C43.4768 30.4661 42.3008 28.0063 43.024 26.1917C43.417 25.2057 44.1968 24.4557 44.9546 23.7383C45.7124 23.021 46.4954 22.2709 46.8884 21.2883C47.2815 20.3056 47.1683 19.0118 46.3507 18.3698C44.8603 19.1559 44.3698 21.0688 43.8447 22.7197C43.1246 24.9797 42.0618 27.1186 40.7097 29.0348C40.2034 29.7521 39.6406 30.4498 38.908 30.9051C38.1753 31.3604 37.2351 31.534 36.4585 31.1638C35.0435 30.4891 34.8328 28.4485 35.2353 26.8828C35.3925 26.2735 35.5309 25.4579 34.9963 25.1632C34.4586 24.8651 33.8801 25.4612 33.5153 25.9689C32.5626 27.3053 31.4274 28.5598 29.9747 29.2575C28.522 29.9552 26.7108 30.0109 25.4028 29.0544C23.5413 27.6951 23.3117 24.9306 23.513 22.5723C23.601 21.5438 23.5759 20.0993 24.0192 19.1625C24.3777 18.4058 25.104 17.6754 25.582 16.9843C26.7863 15.2417 28.1195 13.5614 29.8175 12.3167C30.8489 11.5634 32.2701 10.9934 33.3204 11.7173C34.0782 12.2381 34.358 13.3027 34.2008 14.2329C34.0436 15.1631 33.5247 15.982 32.9556 16.7223C32.1412 17.7802 31.201 18.7334 30.1634 19.5523C29.1918 20.3187 28.1227 20.9804 27.3271 21.9434C26.5316 22.9064 26.0474 24.2821 26.5002 25.4612C26.6762 25.9165 27.0221 26.3391 27.4844 26.434C27.7108 26.4799 27.9434 26.4439 28.173 26.4013C29.9087 26.0574 31.5438 25.1337 32.7261 23.7678C33.9021 22.4118 34.6001 20.6921 35.2762 19.0085C37.5276 13.414 39.7758 7.81624 42.0272 2.22173C42.48 1.09824 43.3227 -0.251259 44.4578 0.0402587C45.2062 0.230236 45.6244 1.12117 45.5804 1.92366C45.5363 2.72615 45.1496 3.4533 44.7785 4.15753C43.2032 7.15787 41.8008 10.2565 40.5808 13.4304C40.5336 13.5516 40.4864 13.6793 40.5085 13.8071C40.543 14.0102 40.7317 14.1412 40.9015 14.246C42.0901 14.9699 43.4642 15.7167 44.7785 15.2909C46.3413 14.7832 47.4481 12.7098 49.0518 13.0603C49.6115 13.1815 50.0957 13.6335 50.275 14.2001C50.756 15.7232 49.1367 17.5215 49.9825 18.8611C52.6395 16.8533 55.2085 14.7209 57.6769 12.4674C58.0511 12.1268 58.4535 11.6027 58.2083 11.1539C57.1863 11.4586 56.0386 11.5634 55.1079 11.036C54.1772 10.5087 53.6237 9.16901 54.196 8.23877C54.6771 7.45594 55.6896 7.26268 56.5826 7.28561C57.4756 7.30854 58.4032 7.46576 59.2271 7.10873C60.1672 6.70585 60.7521 5.72321 61.164 4.75367C61.5759 3.78413 61.8904 2.73925 62.5538 1.93676C63.2173 1.13427 64.3807 0.642946 65.2737 1.15392C65.9372 1.53388 66.2674 2.36257 66.2957 3.14868C66.324 3.9348 66.1039 4.70781 65.9152 5.471C65.8837 5.59874 65.8523 5.73304 65.8837 5.86078C65.9624 6.18505 66.3586 6.28004 66.6793 6.26694C67.349 6.24073 68.0219 6.018 68.6791 6.15557C69.3363 6.29314 69.9557 7.02357 69.6633 7.65246L69.6727 7.64591L69.6665 7.64264ZM65.5001 19.7128C65.409 19.2575 65.3838 18.907 65.258 18.6024C65.1826 18.4157 64.9247 18.1504 64.8021 18.1766C64.321 18.2847 63.8273 18.4321 63.4123 18.6941C63.1827 18.8382 63.0884 19.228 62.9469 19.513C62.3777 20.6594 61.7897 21.796 61.2615 22.9653C61.0319 23.4763 60.9156 24.0495 60.7867 24.6031C60.7521 24.7472 60.8433 25.0485 60.9282 25.0714C61.1106 25.1206 61.359 25.0944 61.5193 24.9928C61.774 24.8356 61.9847 24.5998 62.2048 24.3869C63.277 23.3485 64.1197 22.1071 64.9939 20.8985C65.2517 20.5415 65.3586 20.0632 65.5001 19.716V19.7128ZM39.6217 24.9601C39.5746 24.9175 39.5305 24.8782 39.4834 24.8356C39.3607 24.9404 39.213 25.0256 39.1155 25.1533C38.8985 25.435 38.7067 25.7396 38.5023 26.0312C38.43 26.136 38.3074 26.2179 38.2728 26.3325C38.2382 26.4504 38.2791 26.5945 38.2885 26.7256C38.4206 26.6863 38.5904 26.6863 38.6721 26.5978C38.8482 26.4013 38.996 26.1687 39.1281 25.9362C39.3073 25.6184 39.4582 25.2843 39.6217 24.9568V24.9601ZM39.5683 19.5654C40.3041 19.3885 40.6405 18.8153 41.0524 18.3403C41.0996 18.2847 41.0744 18.1569 41.0807 18.0652C40.9927 18.0849 40.8921 18.0849 40.8197 18.134C40.6059 18.2683 40.3858 18.396 40.2034 18.5729C39.9299 18.8349 39.6375 19.1035 39.5683 19.5686V19.5654Z" />
    <path
      d="M85.9489 17.4725C84.254 19.88 82.8642 22.52 81.8203 25.3009C81.6064 25.8709 81.3895 26.4735 80.9398 26.8666C80.4336 27.3088 79.6664 27.3972 79.0815 27.0762C78.4966 26.7552 78.1287 26.051 78.1916 25.3664C78.2828 24.3641 79.1884 23.4961 78.9997 22.5069C78.4055 22.6052 77.9369 23.0736 77.525 23.5289C76.5943 24.5607 75.7264 25.658 74.9277 26.8044C74.4875 27.4365 74.0473 28.108 73.3933 28.4847C72.2739 29.1332 70.7771 28.7041 69.8999 27.7313C69.0226 26.7585 68.6861 25.3697 68.6798 24.0333C68.6641 21.164 70.0225 18.4486 71.7928 16.2475C73.0977 14.6229 74.7579 13.1456 76.7641 12.7952C77.3615 12.6903 77.9967 12.6936 78.5407 12.9688C79.5783 13.4928 79.9839 14.898 79.7261 16.0674C79.4683 17.2367 78.6947 18.2095 77.8772 19.0546C76.5628 20.4106 75.0661 21.5702 73.4404 22.4938C72.8839 22.8116 72.2927 23.1162 71.9028 23.637C71.5129 24.1578 71.4029 24.9767 71.8431 25.4549C72.2361 25.8774 72.9122 25.8676 73.4184 25.6055C73.9247 25.3435 74.302 24.8849 74.6919 24.4624C76.5817 22.3989 79.0029 20.8561 80.594 18.5305C81.3297 17.4529 81.8674 16.2377 82.6221 15.1797C83.8547 13.4535 85.7602 12.2547 87.3072 10.8528C87.4456 10.7283 87.5902 10.6006 87.7695 10.5646C87.9739 10.5253 88.1782 10.6104 88.3669 10.6956C88.9989 10.9805 89.6655 11.295 90.0366 11.8977C90.3133 12.3464 90.3856 12.8967 90.4013 13.4306C90.4328 14.3805 90.3101 15.3369 90.0429 16.2442C91.3824 15.9986 92.1465 14.1381 93.5017 14.1807C94.3916 14.2102 95.0613 15.1273 95.1714 16.0477C95.2814 16.9681 94.9701 17.8787 94.6683 18.7467C93.4137 22.3366 92.1559 25.9298 90.7001 29.4346C90.4737 29.9783 90.2032 30.5646 89.6844 30.807C88.826 31.2099 87.8198 30.3517 87.65 29.392C87.4802 28.4323 87.8732 27.466 88.2569 26.5718C88.7002 25.5433 89.1404 24.5148 89.5838 23.483C89.829 22.9098 90.0775 22.258 89.8448 21.6782C89.1279 22.4087 88.4675 23.1948 87.8701 24.0333C87.3418 24.7703 86.7004 25.6317 85.8199 25.5761C84.8546 25.5138 84.3012 24.3117 84.4238 23.3127C84.5465 22.3137 85.1125 21.4457 85.4835 20.5155C85.8734 19.5328 86.0526 18.4617 86.0023 17.4005C85.9866 17.4234 85.9709 17.4463 85.9552 17.4693L85.9489 17.4725Z" />
    <path
      d="M24.6047 8.15609C24.5984 14.6383 22.5263 21.0975 18.7876 26.2826C17.4418 28.1496 15.6243 29.9806 13.3824 30.0101C11.8636 30.0297 10.3669 29.1191 9.63424 27.7303C9.48016 27.4388 9.26949 27.072 8.9519 27.1244C8.83556 27.144 8.73808 27.2194 8.6469 27.2947C7.89539 27.9236 7.32939 28.7818 6.54015 29.3582C5.1063 30.4064 2.99327 30.3049 1.66004 29.1224C0.386562 27.9924 -0.0850976 26.1221 0.0123787 24.3861C0.109855 22.6501 0.697858 20.9894 1.22297 19.3386C1.8267 17.4519 2.3581 15.5357 3.12219 13.7113C3.86427 11.9327 4.81702 10.2655 5.83581 8.64414C6.61247 7.40601 7.39543 5.22782 9.04938 5.23109C9.63424 5.23109 10.2443 5.56519 10.4612 6.12857C10.6059 6.50198 10.5713 6.92124 10.5021 7.31757C9.99899 10.1705 7.8891 12.3749 6.53386 14.9068C6.18483 15.5619 5.88297 16.2432 5.58111 16.9213C4.98367 18.2708 4.38309 19.6235 3.96174 21.0451C3.56555 22.3749 3.32972 23.7572 3.26054 25.1493C3.23224 25.7356 3.39575 26.5217 3.9586 26.5512C4.17242 26.561 4.37052 26.4463 4.54975 26.3252C6.232 25.2082 7.4646 23.4788 8.37019 21.6281C9.27578 19.7775 9.88265 17.7893 10.565 15.8371C10.7253 15.3818 10.914 14.897 11.3102 14.6448C11.6907 14.4024 12.1781 14.4352 12.612 14.5498C13.0553 14.6677 13.4956 14.8806 13.7723 15.2606C14.4011 16.1188 13.9452 17.3372 13.5144 18.3199C12.4642 20.711 11.6498 23.3838 12.2284 25.9386C12.2724 26.1286 12.3258 26.3252 12.4611 26.4627C12.744 26.7575 13.222 26.6429 13.5867 26.4726C15.4231 25.6078 16.6777 23.8063 17.6996 21.9983C20.2843 17.4257 21.9603 12.1096 21.3911 6.83935C21.3345 6.312 21.2622 5.73879 21.5201 5.28022C21.9917 4.43188 23.3218 4.57927 23.9287 5.32936C24.5355 6.07944 24.611 7.13742 24.611 8.11679C24.611 8.12989 24.611 8.14627 24.611 8.15937L24.6047 8.15609Z" />
    <path
      d="M107.966 16.7195C107.887 17.8168 107.633 18.9043 107.302 19.9524C106.705 21.8391 105.859 23.6406 104.793 25.2882C104.101 26.3593 103.29 27.3878 102.227 28.0527C101.165 28.7176 99.803 28.9698 98.6679 28.449C98.1836 28.2263 97.6428 27.8693 97.1743 28.1215C96.9322 28.2525 96.7875 28.5145 96.6555 28.7635C94.2406 33.3393 91.9892 38.0167 90.0397 42.8284C89.8258 43.3524 89.612 43.8896 89.2536 44.3187C88.8951 44.7478 88.3605 45.0622 87.8166 44.9902C87.0399 44.8886 86.5179 44.0337 86.4865 43.2214C86.455 42.4091 86.782 41.6295 87.1059 40.886C89.1089 36.2872 91.1087 31.6885 93.1117 27.0897C95.1147 22.4909 97.2686 18.3082 99.4697 13.9616C99.7275 13.4539 100.099 12.8741 100.649 12.9003C101.212 12.9265 101.671 13.6144 102.215 13.4506C102.438 13.3851 102.595 13.1886 102.743 13.0019C103.149 12.4844 103.554 11.9668 103.96 11.4493C104.29 11.0268 104.721 10.5617 105.24 10.637C105.46 10.6697 105.655 10.7975 105.831 10.9351C107.085 11.9112 107.787 13.5227 107.953 15.144C108.007 15.6681 108.01 16.1955 107.972 16.7195H107.966ZM104.592 16.0907C104.463 16.2675 104.347 16.4149 104.246 16.5722C103.689 17.4238 103.136 18.2787 102.58 19.1303C102.171 19.7559 101.749 20.3717 101.35 21.0006C101.02 21.5181 100.721 22.0586 100.394 22.5794C100.004 23.2017 99.5829 23.8011 99.2056 24.43C99.1207 24.5709 99.0609 24.8689 99.1364 24.9508C99.2622 25.0917 99.5137 25.1965 99.6961 25.1736C99.9854 25.1342 100.272 25.0065 100.533 24.8624C100.841 24.6921 101.152 24.4988 101.4 24.2466C101.982 23.6636 102.576 23.0772 103.073 22.4189C103.403 21.98 103.567 21.4035 103.822 20.8991C104.416 19.7166 104.73 18.4424 104.928 17.1355C104.985 16.772 104.928 16.4117 104.595 16.0939L104.592 16.0907Z" />
  </g>
</svg>
