<svg width="120" height="55" viewBox="0 0 120 55" fill="none" xmlns="http://www.w3.org/2000/svg">
<path fill-rule="evenodd" clip-rule="evenodd" d="M72.2233 11.6138C77.0738 10.0521 77.3899 9.27934 77.3829 9.27541L77.3841 9.27609L77.3794 9.2872L77.3899 9.27934L77.3841 9.27609C77.6976 8.52405 77.0125 7.65542 76.286 7.49117C75.8142 7.38451 75.3352 7.45835 74.8545 7.53244C74.5913 7.57302 74.3275 7.61366 74.0642 7.62479C73.7079 7.64051 73.2678 7.52654 73.1804 7.13746C73.1455 6.98419 73.1804 6.82306 73.2154 6.66979C73.237 6.57525 73.259 6.48059 73.281 6.38579C73.4725 5.56241 73.6663 4.72922 73.6381 3.88339C73.6066 2.94018 73.2398 1.94587 72.5027 1.48999C71.5106 0.876901 70.2181 1.46641 69.481 2.42927C68.9078 3.17794 68.5691 4.10243 68.2317 5.02355C68.1351 5.28708 68.0387 5.55033 67.9369 5.80911C67.4793 6.9724 66.8295 8.15142 65.785 8.63481C65.0588 8.97471 64.26 8.92615 63.4654 8.87785C63.2586 8.86527 63.052 8.85272 62.8471 8.84703C61.855 8.81952 60.7301 9.0514 60.1956 9.99068C59.5598 11.1068 60.1747 12.7142 61.2087 13.3469C62.2427 13.9797 63.5178 13.8539 64.6532 13.4884C64.9256 14.0268 64.4785 14.6556 64.0628 15.0644C61.3205 17.7682 58.4664 20.3267 55.5145 22.7358C55.0112 21.8748 55.2936 20.856 55.5824 19.8145C55.8326 18.9117 56.0876 17.992 55.8394 17.1434C55.6403 16.4635 55.1023 15.9211 54.4805 15.7757C53.4235 15.5262 52.5608 16.3004 51.6712 17.0987C51.0615 17.6458 50.4392 18.2043 49.7331 18.4521C48.2728 18.963 46.7462 18.0669 45.4257 17.1984C45.2371 17.0726 45.0275 16.9154 44.9891 16.6718C44.9646 16.5185 45.017 16.3652 45.0694 16.2198C46.4248 12.4116 47.9829 8.69376 49.7331 5.09384L49.7447 5.06988L49.7448 5.06985C50.1534 4.23237 50.5754 3.3673 50.6239 2.41355C50.6728 1.45069 50.2081 0.381715 49.3767 0.153773C48.1156 -0.196001 47.1794 1.42318 46.6764 2.77118C45.4257 6.12759 44.1759 9.48498 42.9261 12.8424C41.6764 16.1995 40.4267 19.5566 39.1761 22.9127C38.4251 24.9327 37.6495 26.996 36.343 28.623C35.0295 30.2619 33.213 31.3701 31.2847 31.7828C31.0296 31.8339 30.7711 31.8771 30.5196 31.8221C30.0061 31.7081 29.6218 31.2011 29.4262 30.6549C28.9232 29.24 29.4611 27.5894 30.3449 26.434C30.999 25.5789 31.8196 24.9218 32.6395 24.2653L32.6396 24.2652C32.9275 24.0346 33.2154 23.8041 33.496 23.5651C34.6488 22.5825 35.6933 21.4389 36.598 20.1695C37.2303 19.2813 37.8067 18.2988 37.9814 17.1827C38.1561 16.0665 37.8452 14.7893 37.0033 14.1644C35.8365 13.2958 34.2575 13.9797 33.1117 14.8836C31.2253 16.377 29.7441 18.3931 28.4061 20.4839C28.2161 20.7807 27.9907 21.0835 27.7614 21.3916L27.7613 21.3917C27.3499 21.9445 26.9256 22.5145 26.6699 23.0974C26.2837 23.9788 26.2175 25.2349 26.1598 26.3311C26.1439 26.6327 26.1286 26.9223 26.1075 27.1886C25.8839 30.0182 26.139 33.3351 28.207 34.9661C29.6603 36.1137 31.6724 36.0469 33.2863 35.2098C34.9003 34.3727 36.1614 32.8675 37.2199 31.264C37.6251 30.6549 38.2679 29.9396 38.8652 30.2972C39.4591 30.6509 39.3054 31.6295 39.1307 32.3605C38.6836 34.2391 38.9176 36.6875 40.4896 37.4971C41.3525 37.9412 42.397 37.7329 43.211 37.1866C44.0249 36.6403 44.6502 35.8032 45.2127 34.9425C46.7148 32.6435 47.8955 30.0771 48.6955 27.3654C48.7418 27.2083 48.7878 27.0493 48.8342 26.8891L48.8342 26.889C49.3724 25.0291 49.9552 23.0147 51.4797 22.1463C52.388 22.9166 52.5138 24.469 52.0771 25.648C51.6404 26.827 50.7706 27.727 49.9287 28.5877C49.0868 29.4483 48.2204 30.3483 47.7838 31.5313C46.9803 33.7085 48.2868 36.66 50.3723 36.8604C51.7208 36.9901 53.0133 36.039 53.7714 34.7775C54.5294 33.5159 54.8438 31.9911 55.0709 30.4898C55.0772 30.4489 55.0834 30.4079 55.0896 30.3669C55.0939 30.3387 55.0981 30.3105 55.1024 30.2823L55.1024 30.2822L55.1024 30.2822C55.2128 29.5511 55.3246 28.8113 55.6054 28.1436C55.9093 27.4165 56.3984 26.8113 56.8979 26.2414C58.2987 24.6419 59.8463 23.1996 61.5091 21.9537L57.2018 29.9003C56.573 31.0597 55.9198 32.3291 56.0246 33.6849C56.1294 35.0408 57.401 36.3377 58.5049 35.7836C59.0708 35.5006 59.4061 34.8482 59.7031 34.2391C60.6506 32.2927 61.5994 30.3478 62.5479 28.4035L62.5524 28.3943L62.5582 28.3824L62.5614 28.3758L62.5646 28.3693C63.1772 27.1135 63.7897 25.8581 64.4016 24.6026C64.4881 25.6397 64.383 26.6768 64.2777 27.7155L64.2777 27.7157C64.2043 28.4403 64.1308 29.1657 64.1222 29.8924C64.1012 31.661 64.5973 33.6378 65.9771 34.4867C67.0147 35.1312 68.3352 34.9583 69.3971 34.3648C70.4591 33.7714 71.3115 32.7967 72.1184 31.8182C73.659 29.9435 75.1472 27.8802 75.7306 25.4122C76.314 22.9441 75.762 19.9691 73.8826 18.5346C72.8136 17.7194 71.5245 17.5142 70.2255 17.3075C69.2449 17.1514 68.2586 16.9944 67.357 16.5735C68.157 14.9347 69.0338 13.2094 70.4975 12.3251C71.039 11.9989 71.6329 11.8024 72.2233 11.6138ZM72.6758 23.2847L72.6759 23.2853C72.6987 23.4321 72.7229 23.5889 72.7542 23.7576V23.7616C72.7084 23.8832 72.6657 24.0182 72.6213 24.159C72.5134 24.5007 72.3946 24.877 72.1918 25.1803C72.0683 25.3648 71.9453 25.5499 71.8223 25.7351L71.8208 25.7373C70.9773 27.007 70.1323 28.2791 69.0932 29.3658C69.0421 29.4191 68.9915 29.4737 68.9408 29.5283C68.7488 29.7353 68.5555 29.9436 68.3317 30.0929C68.1535 30.2147 67.8775 30.2461 67.6749 30.1872C67.5806 30.1597 67.4793 29.7981 67.5177 29.6252C67.5346 29.5467 67.5514 29.4678 67.5681 29.3888C67.6932 28.7995 67.8203 28.2008 68.0452 27.6602C68.4923 26.5913 68.9779 25.5452 69.4635 24.4994L69.4637 24.4989L69.4641 24.4981C69.6156 24.1716 69.7672 23.8451 69.9176 23.5179C69.9611 23.4234 70.0005 23.3193 70.0403 23.2144C70.1443 22.9399 70.2501 22.6605 70.4347 22.5354C70.8958 22.221 71.4442 22.0441 71.9787 21.9144C72.115 21.883 72.4014 22.2013 72.4853 22.4253C72.5818 22.6778 72.6249 22.9564 72.6758 23.2847V23.2847ZM44.0027 30.0523L43.9272 29.979L43.8502 29.9042C43.8061 29.945 43.759 29.9833 43.7118 30.0216C43.6134 30.1016 43.5147 30.1818 43.4415 30.2854C43.2838 30.5067 43.138 30.7397 42.9924 30.9723L42.9923 30.9724L42.9922 30.9726C42.9154 31.0953 42.8387 31.2179 42.7603 31.3387C42.73 31.3861 42.6918 31.4296 42.6539 31.4728C42.5912 31.5441 42.5292 31.6145 42.5053 31.7003C42.4781 31.8004 42.4929 31.9163 42.5076 32.0313C42.5137 32.0787 42.5197 32.1259 42.5228 32.1719C42.5677 32.1574 42.6166 32.1474 42.6655 32.1374C42.7759 32.1147 42.886 32.0922 42.949 32.0186C43.1446 31.7828 43.3088 31.5037 43.4555 31.2247C43.5942 30.9591 43.7177 30.6839 43.8413 30.4085L43.8414 30.4083C43.8947 30.2894 43.9481 30.1705 44.0027 30.0523ZM43.9451 23.5806C44.6174 23.4059 44.9896 22.9094 45.3552 22.4215C45.434 22.3165 45.5124 22.2119 45.5934 22.1109C45.63 22.0643 45.6274 21.9755 45.6249 21.8888C45.6238 21.8512 45.6228 21.814 45.6249 21.7808C45.5967 21.7876 45.5675 21.7924 45.5381 21.7973C45.4654 21.8093 45.3922 21.8213 45.3349 21.8633C45.305 21.8836 45.275 21.9038 45.2449 21.924C45.0364 22.064 44.8273 22.2045 44.6502 22.39L44.6253 22.4157C44.3295 22.7214 44.0209 23.0403 43.9451 23.5806ZM90.8938 30.4623C92.0536 27.1257 93.5976 23.9581 95.4806 21.0695L95.4876 21.0656L95.54 20.9831C95.5958 22.2564 95.3967 23.5415 94.9636 24.7205C94.8368 25.0638 94.6896 25.3999 94.5425 25.7357C94.2112 26.492 93.8806 27.2467 93.7863 28.0768C93.65 29.2755 94.2649 30.7178 95.3373 30.7925C96.3155 30.8593 97.0281 29.8257 97.615 28.9414C98.2787 27.9353 99.0123 26.9921 99.8088 26.1157C100.067 26.8113 99.7914 27.5934 99.5189 28.2812C99.3435 28.722 99.1685 29.1624 98.9936 29.6025L98.9918 29.6071L98.9885 29.6154C98.6741 30.4067 98.3601 31.1969 98.0447 31.9872C97.6185 33.0601 97.1818 34.2195 97.3705 35.371C97.5591 36.5225 98.677 37.5521 99.6307 37.0687C100.207 36.7779 100.507 36.0744 100.759 35.4221C102.376 31.2169 103.774 26.9056 105.168 22.5983C105.503 21.5568 105.849 20.4643 105.727 19.36C105.604 18.2556 104.86 17.1552 103.872 17.1198C103.069 17.0926 102.453 17.7137 101.828 18.3446C101.28 18.8976 100.724 19.4581 100.029 19.5958C100.326 18.5071 100.462 17.3596 100.427 16.2198C100.41 15.5792 100.329 14.919 100.022 14.3806C99.6097 13.6575 98.8691 13.2802 98.167 12.9383C97.9574 12.8361 97.7303 12.7339 97.5032 12.7811C97.3041 12.8243 97.1434 12.9776 96.9897 13.1269C96.4482 13.6568 95.8672 14.1625 95.2825 14.6715C94.0113 15.7781 92.7226 16.8998 91.7846 18.3185C91.3438 18.9859 90.9696 19.7054 90.5951 20.4257C90.2572 21.0754 89.9191 21.7257 89.5314 22.3389C88.4621 24.0269 87.0554 25.3711 85.646 26.7178C84.7255 27.5974 83.8038 28.478 82.9744 29.4562C82.919 29.521 82.8639 29.5865 82.8086 29.6522L82.8078 29.6531C82.4311 30.1007 82.0498 30.5538 81.5596 30.8278C80.9971 31.1422 80.2461 31.154 79.8094 30.647C79.3203 30.0733 79.4426 29.0907 79.8758 28.4659C80.2699 27.8973 80.8492 27.5434 81.4162 27.1971C81.4723 27.1628 81.5283 27.1286 81.584 27.0943C83.3901 25.986 85.0529 24.5948 86.5131 22.9677C87.4214 21.9538 88.2808 20.7866 88.5672 19.3835C88.8537 17.9805 88.403 16.2945 87.2502 15.6657C86.6459 15.3356 85.9402 15.3317 85.2765 15.4574C83.0477 15.8779 81.2032 17.6504 79.7535 19.5997C77.7867 22.2407 76.2776 25.4987 76.2951 28.9414C76.3021 30.5449 76.6758 32.2112 77.6505 33.3784C78.6251 34.5457 80.288 35.0605 81.5316 34.2823C82.2138 33.858 82.6866 33.122 83.1465 32.4059L83.2364 32.2662C84.1237 30.8907 85.0878 29.5741 86.1219 28.3362C86.5795 27.7899 87.1 27.2279 87.7603 27.11C87.8792 27.7835 87.6067 28.4102 87.3302 29.046C87.1194 29.5307 86.9063 30.0208 86.8625 30.5409C86.7926 31.3623 87.2013 32.2073 87.8511 32.5924C88.5008 32.9776 89.3532 32.8714 89.9157 32.3409C90.401 31.8827 90.6423 31.1872 90.8735 30.5209L90.8938 30.4623ZM27.3353 9.89002C27.3283 17.6676 25.0262 25.4176 20.8726 31.6389C19.3774 33.879 17.3582 36.0759 14.8675 36.1113C13.1802 36.1349 11.5174 35.0423 10.7034 33.376C10.5322 33.0262 10.2982 32.586 9.94535 32.6489C9.8161 32.6725 9.7078 32.7629 9.6065 32.8533C9.22986 33.1937 8.89517 33.59 8.56073 33.9861L8.56071 33.9861C8.15378 34.4681 7.74723 34.9495 7.26595 35.3292C5.67298 36.5868 3.32545 36.465 1.84427 35.0462C0.429461 33.6904 -0.0945415 31.4463 0.0137525 29.3634C0.110788 27.497 0.645366 25.7032 1.17517 23.9254C1.23664 23.7192 1.29804 23.5131 1.35869 23.3072C1.51818 22.7689 1.67313 22.2286 1.82808 21.6883L1.82809 21.6883C2.3248 19.9563 2.82165 18.2239 3.46868 16.5554C4.29311 14.4214 5.35159 12.421 6.48344 10.4756C6.65376 10.1824 6.82435 9.84517 7.00261 9.49285L7.00261 9.49284C7.72741 8.06026 8.57885 6.37733 10.0536 6.38049C10.7034 6.38049 11.3811 6.78135 11.6222 7.45732C11.7829 7.90534 11.7444 8.40839 11.6676 8.88393C11.2892 11.2013 10.0926 13.1621 8.89192 15.1296L8.89191 15.1297C8.31907 16.0684 7.74528 17.0086 7.25897 17.9898C6.88057 18.7569 6.55208 19.5538 6.2248 20.3478L6.20048 20.4068L6.18452 20.4457C5.52606 22.052 4.86576 23.6628 4.4014 25.3547C3.96124 26.9503 3.69924 28.6088 3.62239 30.2791C3.59095 30.9826 3.7726 31.9258 4.39791 31.9612C4.63546 31.9729 4.85554 31.8354 5.05466 31.69C6.9236 30.3498 8.293 28.2748 9.29908 26.0543C10.1015 24.2834 10.6927 22.4076 11.2838 20.5324L11.2839 20.5322C11.4339 20.0562 11.584 19.5802 11.7374 19.106C11.9156 18.5597 12.1252 17.9781 12.5654 17.6754C12.9881 17.3846 13.5295 17.4239 14.0116 17.5615C14.5042 17.7029 14.9932 17.9584 15.3007 18.4143C15.9993 19.444 15.4928 20.9059 15.0142 22.0849C13.8474 24.9539 12.9426 28.1608 13.5854 31.2262C13.6343 31.4542 13.6937 31.69 13.8439 31.855C14.1583 32.2087 14.6893 32.0712 15.0946 31.8668C17.1347 30.8293 18.5285 28.6678 19.6639 26.4984C22.5354 21.012 24.3974 14.6336 23.7651 8.31014L23.7588 8.24773C23.6973 7.63245 23.6312 6.9716 23.9083 6.43944C24.4323 5.42156 25.91 5.59841 26.5842 6.49839C27.2584 7.39837 27.3422 8.66777 27.3422 9.84286V9.89395L27.3353 9.89002ZM119.228 24.0518C119.595 22.7942 119.878 21.4895 119.965 20.1729H119.972C120.014 19.5441 120.01 18.9113 119.951 18.2825C119.766 16.3372 118.987 14.4036 117.593 13.2324C117.397 13.0674 117.181 12.9141 116.936 12.8748C116.36 12.7844 115.881 13.3425 115.515 13.8494L114.163 15.7123C113.998 15.9363 113.824 16.1721 113.576 16.2507C113.24 16.3597 112.934 16.1543 112.621 15.9444C112.37 15.7759 112.114 15.6045 111.836 15.5905C111.225 15.559 110.812 16.2546 110.526 16.8638C110.305 17.3343 110.085 17.8032 109.866 18.271C107.65 22.9886 105.487 27.5954 103.462 32.6154C102.35 35.3737 101.239 38.132 100.127 40.8903C99.015 43.6498 97.903 46.4093 96.7901 49.1688C96.4303 50.0609 96.067 50.9962 96.1019 51.9709C96.1369 52.9455 96.7168 53.9713 97.5796 54.0931C98.184 54.1796 98.7779 53.8023 99.1761 53.2874C99.5634 52.7868 99.7987 52.1635 100.03 51.5512L100.049 51.4993C102.215 45.726 104.717 40.1139 107.399 34.6237C107.546 34.325 107.707 34.0106 107.976 33.8534C108.415 33.5981 108.911 33.863 109.379 34.1126C109.465 34.1589 109.551 34.2046 109.635 34.2464C110.896 34.8713 112.409 34.5686 113.59 33.7708C114.77 32.973 115.672 31.739 116.44 30.4539C117.624 28.4771 118.564 26.3155 119.228 24.0518ZM116.096 19.5946C116.135 19.538 116.175 19.4796 116.217 19.4183L116.22 19.4223C116.59 19.8035 116.653 20.2358 116.59 20.672C116.37 22.2401 116.021 23.7689 115.361 25.1876C115.261 25.4001 115.175 25.6233 115.088 25.8462C114.927 26.2582 114.767 26.6695 114.529 27.0112C114.006 27.76 113.386 28.4311 112.772 29.0948C112.738 29.1313 112.705 29.1677 112.671 29.2041C112.395 29.5067 112.049 29.7386 111.707 29.943C111.417 30.1159 111.099 30.2692 110.778 30.3163C110.575 30.3438 110.295 30.2181 110.156 30.0491C110.072 29.9508 110.138 29.5932 110.233 29.4242C110.474 28.9889 110.732 28.5654 110.991 28.1416C111.18 27.8308 111.37 27.5197 111.553 27.2037C111.724 26.91 111.888 26.6111 112.051 26.3123C112.236 25.9753 112.421 25.6385 112.615 25.3095C112.889 24.8442 113.171 24.3849 113.455 23.9252C113.631 23.6393 113.807 23.3532 113.981 23.0654C114.29 22.5545 114.598 22.0426 114.907 21.5307C115.215 21.0188 115.523 20.5069 115.832 19.996C115.912 19.8619 116 19.7337 116.096 19.5946Z" fill="#02130F"/>
</svg>
