<svg width="102" height="42" viewBox="0 0 102 42" fill="none" xmlns="http://www.w3.org/2000/svg">
<path d="M65.7791 7.13267C65.785 7.13573 65.5163 7.73677 61.3932 8.95153C60.8913 9.09827 60.3865 9.25111 59.9263 9.50483C58.6821 10.1926 57.9367 11.5346 57.2567 12.8094C59.0384 13.5705 61.2091 13.222 62.8037 14.3348C64.4013 15.4505 64.8704 17.7646 64.3745 19.6844C63.8786 21.6041 62.6136 23.209 61.3041 24.6671C60.6182 25.4283 59.8936 26.1864 58.9909 26.648C58.0882 27.1096 56.9657 27.2441 56.0838 26.7428C54.9108 26.0825 54.4892 24.5449 54.507 23.1692C54.5248 21.7936 54.8693 20.4241 54.7445 19.0546C53.4142 21.5521 52.0809 24.0496 50.7506 26.5502C50.4982 27.024 50.2131 27.5315 49.7321 27.7516C48.7937 28.1826 47.7128 27.1738 47.6238 26.1192C47.5347 25.0645 48.09 24.0771 48.6245 23.1754C49.8449 21.115 51.0654 19.0546 52.2858 16.9943C50.8724 17.9633 49.5569 19.0852 48.3661 20.3294C47.9415 20.7726 47.5258 21.2434 47.2674 21.8089C47.0061 22.3775 46.917 23.0133 46.8131 23.6339C46.6201 24.8016 46.3528 25.9877 45.7085 26.969C45.0641 27.9503 43.9654 28.69 42.8192 28.5891C41.0464 28.4332 39.9358 26.1375 40.6188 24.444C40.99 23.5238 41.7264 22.8238 42.442 22.1543C43.1577 21.4849 43.8971 20.7848 44.2683 19.8678C44.6395 18.9507 44.5325 17.7432 43.7605 17.1441C42.353 17.8777 41.8897 19.663 41.3938 21.2036C40.7138 23.3129 39.7101 25.3091 38.4333 27.0974C37.9552 27.7668 37.4236 28.418 36.7318 28.8429C36.0399 29.2678 35.152 29.4298 34.4185 29.0844C33.0823 28.4546 32.8833 26.5502 33.2634 25.089C33.4119 24.5204 33.5425 23.7592 33.0377 23.4841C32.53 23.2059 31.9836 23.7623 31.6391 24.2361C30.7394 25.4833 29.6674 26.6541 28.2955 27.3052C26.9236 27.9564 25.2132 28.0083 23.9779 27.1157C22.22 25.8471 22.0032 23.2671 22.1932 21.0661C22.2764 20.1062 22.2526 18.7581 22.6713 17.8838C23.0098 17.1777 23.6958 16.496 24.1472 15.851C25.2845 14.2247 26.5435 12.6565 28.147 11.4949C29.121 10.7918 30.4632 10.2599 31.455 10.9355C32.1707 11.4215 32.4349 12.415 32.2865 13.2832C32.138 14.1513 31.648 14.9156 31.1106 15.6064C30.3415 16.5938 29.4536 17.4834 28.4737 18.2476C27.5561 18.9629 26.5465 19.5804 25.7952 20.4792C25.0439 21.3779 24.5866 22.6618 25.0142 23.7623C25.1805 24.1872 25.5072 24.5815 25.9437 24.6702C26.1575 24.713 26.3772 24.6794 26.594 24.6396C28.2331 24.3186 29.7773 23.4566 30.8938 22.1819C32.0044 20.9163 32.6636 19.3114 33.302 17.7402C35.4282 12.519 37.5513 7.29469 39.6775 2.07348C40.1051 1.02496 40.9009 -0.234493 41.9729 0.0375724C42.6796 0.214873 43.0745 1.04635 43.033 1.7953C42.9914 2.54424 42.6262 3.22288 42.2758 3.88011C40.788 6.68025 39.4637 9.57209 38.3115 12.5342C38.267 12.6473 38.2224 12.7666 38.2432 12.8858C38.2759 13.0753 38.454 13.1976 38.6144 13.2954C39.7369 13.971 41.0345 14.668 42.2758 14.2706C43.7516 13.7967 44.7968 11.8617 46.3113 12.1888C46.8398 12.3019 47.2971 12.7238 47.4664 13.2526C47.9207 14.6741 46.3914 16.3523 47.1902 17.6026C49.6994 15.7287 52.1255 13.7387 54.4565 11.6355C54.8099 11.3176 55.19 10.8285 54.9584 10.4097C53.9933 10.694 52.9094 10.7918 52.0305 10.2996C51.1515 9.80747 50.6289 8.55719 51.1693 7.68903C51.6236 6.95843 52.5798 6.77807 53.4231 6.79947C54.2665 6.82086 55.1425 6.9676 55.9205 6.63439C56.8083 6.25839 57.3607 5.34132 57.7497 4.43647C58.1387 3.53162 58.4356 2.55647 59.0622 1.80753C59.6887 1.05858 60.7874 0.600045 61.6307 1.07692C62.2573 1.43153 62.5691 2.20492 62.5958 2.93858C62.6225 3.67224 62.4147 4.39367 62.2365 5.10594C62.2068 5.22516 62.1771 5.35049 62.2068 5.46971C62.2811 5.77234 62.6552 5.86099 62.9581 5.84877C63.5906 5.82431 64.2261 5.61644 64.8467 5.74483C65.4673 5.87322 66.0523 6.55491 65.7761 7.14184L65.785 7.13573L65.7791 7.13267ZM61.8445 18.3974C61.7584 17.9725 61.7347 17.6454 61.6159 17.3611C61.5446 17.1869 61.3011 16.9392 61.1853 16.9637C60.731 17.0646 60.2648 17.2021 59.8728 17.4467C59.656 17.5812 59.567 17.945 59.4333 18.2109C58.8959 19.2808 58.3406 20.3416 57.8417 21.4329C57.6249 21.9098 57.5151 22.4448 57.3933 22.9614C57.3607 23.0959 57.4468 23.3771 57.5269 23.3985C57.6992 23.4444 57.9338 23.4199 58.0852 23.3251C58.3257 23.1784 58.5247 22.9583 58.7325 22.7596C59.7451 21.7906 60.5409 20.632 61.3665 19.504C61.61 19.1708 61.7109 18.7245 61.8445 18.4005V18.3974ZM37.4058 23.2946C37.3613 23.2548 37.3197 23.2182 37.2752 23.1784C37.1594 23.2762 37.0198 23.3557 36.9277 23.4749C36.7228 23.7378 36.5417 24.0221 36.3487 24.2942C36.2804 24.392 36.1646 24.4684 36.1319 24.5754C36.0993 24.6855 36.1379 24.82 36.1468 24.9422C36.2715 24.9056 36.4318 24.9056 36.509 24.823C36.6753 24.6396 36.8149 24.4226 36.9396 24.2055C37.1089 23.909 37.2514 23.5972 37.4058 23.2915V23.2946ZM37.3553 18.2598C38.0502 18.0948 38.3679 17.5598 38.7569 17.1166C38.8015 17.0646 38.7777 16.9454 38.7837 16.8598C38.7005 16.8781 38.6055 16.8781 38.5372 16.924C38.3353 17.0493 38.1274 17.1685 37.9552 17.3336C37.6968 17.5781 37.4207 17.8288 37.3553 18.2629V18.2598Z" fill="#02130F"/>
<path d="M81.1639 16.3078C79.5634 18.5546 78.2509 21.0185 77.265 23.6138C77.0631 24.1457 76.8582 24.7082 76.4336 25.075C75.9555 25.4877 75.2309 25.5703 74.6786 25.2707C74.1263 24.9711 73.7788 24.3139 73.8382 23.675C73.9244 22.7396 74.7796 21.9295 74.6014 21.0063C74.0402 21.098 73.5977 21.5351 73.2087 21.96C72.3297 22.923 71.5102 23.947 70.7559 25.017C70.3402 25.6069 69.9245 26.2336 69.3068 26.5852C68.2497 27.1904 66.8362 26.79 66.0078 25.8821C65.1793 24.9742 64.8615 23.678 64.8556 22.4308C64.8407 19.7529 66.1236 17.2188 67.7954 15.1645C69.0277 13.6483 70.5956 12.2696 72.4901 11.9425C73.0543 11.8447 73.6541 11.8478 74.1678 12.1045C75.1478 12.5937 75.5308 13.9051 75.2873 14.9964C75.0438 16.0877 74.3134 16.9956 73.5413 17.7843C72.3001 19.0499 70.8866 20.132 69.3514 20.9941C68.8258 21.2906 68.2675 21.5749 67.8993 22.0609C67.5311 22.547 67.4272 23.3112 67.8429 23.7575C68.2141 24.1519 68.8525 24.1427 69.3306 23.8981C69.8087 23.6536 70.165 23.2256 70.5332 22.8313C72.3179 20.9054 74.6044 19.4656 76.1069 17.2952C76.8018 16.2895 77.3095 15.1553 78.0222 14.168C79.1863 12.557 80.9857 11.4381 82.4467 10.1298C82.5774 10.0136 82.714 9.8944 82.8832 9.86077C83.0763 9.82409 83.2693 9.90357 83.4474 9.98305C84.0443 10.249 84.6738 10.5425 85.0242 11.1049C85.2855 11.5237 85.3538 12.0373 85.3687 12.5356C85.3984 13.4221 85.2826 14.3147 85.0302 15.1615C86.2952 14.9322 87.0167 13.1959 88.2966 13.2356C89.1369 13.2631 89.7694 14.1191 89.8734 14.978C89.9773 15.837 89.6833 16.6869 89.3983 17.4969C88.2134 20.8473 87.0256 24.2008 85.6508 27.4717C85.437 27.9791 85.1816 28.5263 84.6916 28.7525C83.881 29.1285 82.9308 28.3276 82.7704 27.4319C82.61 26.5362 82.9812 25.6345 83.3435 24.7999C83.7622 23.84 84.1779 22.8802 84.5966 21.9172C84.8282 21.3823 85.0628 20.774 84.8431 20.2329C84.1661 20.9146 83.5425 21.6482 82.9783 22.4308C82.4794 23.1186 81.8736 23.9226 81.0422 23.8706C80.1305 23.8125 79.6079 22.6906 79.7237 21.7583C79.8395 20.8259 80.374 20.0158 80.7244 19.1477C81.0927 18.2306 81.2619 17.231 81.2144 16.2406C81.1996 16.262 81.1847 16.2834 81.1699 16.3047L81.1639 16.3078Z" fill="#02130F"/>
<path d="M23.2359 7.61319C23.23 13.6628 21.2731 19.6911 17.7424 24.5302C16.4715 26.2726 14.7551 27.9814 12.6379 28.0089C11.2036 28.0273 9.79015 27.1774 9.09826 25.8813C8.95276 25.6092 8.7538 25.2669 8.45389 25.3158C8.34402 25.3341 8.25196 25.4044 8.16585 25.4747C7.45615 26.0617 6.92164 26.8626 6.17631 27.4006C4.82223 28.3788 2.82675 28.284 1.56769 27.1805C0.365057 26.1259 -0.0803634 24.3804 0.0116901 22.7602C0.103744 21.14 0.659034 19.5902 1.15494 18.0495C1.72507 16.2887 2.22691 14.5004 2.94849 12.7977C3.64929 11.1378 4.54904 9.58184 5.51114 8.06867C6.2446 6.91315 6.984 4.88031 8.54594 4.88336C9.09826 4.88336 9.67434 5.19517 9.87923 5.72096C10.0158 6.06945 9.98316 6.46073 9.91784 6.83062C9.44272 9.49319 7.45021 11.5505 6.17037 13.9135C5.84076 14.5249 5.55569 15.1607 5.27062 15.7935C4.70642 17.0529 4.13925 18.3154 3.74134 19.6421C3.36719 20.8833 3.14448 22.1733 3.07915 23.4725C3.05243 24.0196 3.20684 24.7533 3.73837 24.7808C3.9403 24.79 4.12737 24.683 4.29663 24.5699C5.8853 23.5275 7.04933 21.9134 7.90454 20.1863C8.75974 18.4591 9.33285 16.6036 9.97722 14.7817C10.1287 14.3567 10.3068 13.9043 10.681 13.6689C11.0403 13.4427 11.5006 13.4733 11.9103 13.5803C12.329 13.6903 12.7448 13.889 13.0061 14.2436C13.6 15.0445 13.1694 16.1817 12.7626 17.0988C11.7708 19.3303 11.0017 21.8248 11.5481 24.2092C11.5896 24.3865 11.6401 24.5699 11.7678 24.6983C12.0351 24.9734 12.4864 24.8664 12.8309 24.7075C14.5651 23.9004 15.7499 22.2191 16.7149 20.5317C19.1558 16.2643 20.7386 11.3029 20.2011 6.38431C20.1477 5.89214 20.0794 5.35718 20.3228 4.92922C20.7683 4.13748 22.0244 4.27504 22.5975 4.97507C23.1706 5.6751 23.2418 6.66249 23.2418 7.57651C23.2418 7.58873 23.2418 7.60402 23.2418 7.61624L23.2359 7.61319Z" fill="#02130F"/>
<path d="M101.97 15.6061C101.896 16.6302 101.655 17.6451 101.343 18.6233C100.779 20.3841 99.9805 22.0654 98.9738 23.603C98.3205 24.6026 97.5544 25.5625 96.5507 26.183C95.5471 26.8036 94.2613 27.039 93.1893 26.5529C92.732 26.345 92.2213 26.0118 91.7788 26.2472C91.5502 26.3695 91.4136 26.6141 91.2888 26.8464C89.0083 31.1169 86.8822 35.4822 85.0411 39.9728C84.8392 40.4619 84.6372 40.9632 84.2987 41.3637C83.9602 41.7641 83.4554 42.0576 82.9417 41.9903C82.2082 41.8956 81.7153 41.0977 81.6856 40.3396C81.6559 39.5815 81.9647 38.8539 82.2706 38.16C84.1621 33.8681 86.0507 29.5762 87.9422 25.2843C89.8338 20.9924 91.8679 17.0887 93.9465 13.0322C94.19 12.5584 94.5404 12.0173 95.0601 12.0417C95.5916 12.0662 96.0251 12.7082 96.5389 12.5553C96.7497 12.4942 96.8982 12.3108 97.0377 12.1365C97.4208 11.6535 97.8039 11.1705 98.1869 10.6875C98.4987 10.2932 98.9055 9.85911 99.3955 9.92942C99.6034 9.95999 99.7875 10.0792 99.9538 10.2076C101.139 11.1186 101.801 12.6226 101.958 14.1357C102.009 14.6248 102.012 15.117 101.976 15.6061H101.97ZM98.7838 15.0192C98.662 15.1843 98.5522 15.3218 98.4571 15.4685C97.9315 16.2633 97.4089 17.0612 96.8833 17.856C96.4973 18.4399 96.0994 19.0146 95.7223 19.6015C95.4105 20.0845 95.1284 20.5889 94.8195 21.0749C94.4513 21.6557 94.0534 22.2152 93.6971 22.8021C93.6169 22.9335 93.5605 23.2117 93.6318 23.2881C93.7505 23.4196 93.9881 23.5174 94.1603 23.496C94.4335 23.4593 94.7037 23.3401 94.9502 23.2056C95.2412 23.0466 95.5352 22.8663 95.7698 22.6309C96.3191 22.0868 96.8803 21.5396 97.3495 20.9251C97.6613 20.5155 97.8157 19.9775 98.0563 19.5067C98.6175 18.4032 98.9144 17.214 99.1015 15.9943C99.155 15.655 99.1015 15.3188 98.7867 15.0222L98.7838 15.0192Z" fill="#02130F"/>
</svg>
