<svg width="117" height="14" viewBox="0 0 117 14" fill="none" xmlns="http://www.w3.org/2000/svg">
<path d="M113.346 13.0015V10.1035H116.226V13.0015H113.346Z" fill="white"/>
<path d="M104.264 12.9998V0.759766H107.144V12.9998H104.264ZM109.07 9.00377H106.37V6.71777H108.908C109.604 6.71777 110.12 6.54977 110.456 6.21377C110.792 5.87777 110.96 5.43376 110.96 4.88176C110.96 4.31776 110.792 3.87377 110.456 3.54977C110.12 3.21377 109.628 3.04577 108.98 3.04577H106.37V0.759766H109.034C110.054 0.759766 110.924 0.921765 111.644 1.24576C112.376 1.56976 112.94 2.04377 113.336 2.66777C113.732 3.27977 113.93 4.01177 113.93 4.86377C113.93 6.18377 113.492 7.20377 112.616 7.92377C111.74 8.64377 110.558 9.00377 109.07 9.00377Z" fill="white"/>
<path d="M88.2148 12.9998V0.759766H90.8788L91.0948 12.9998H88.2148ZM99.1948 12.9998L99.4108 0.759766H102.075V12.9998H99.1948ZM96.1888 12.9998H94.1008L91.8508 6.98777L89.9428 0.759766H92.0128L94.6768 7.99577L95.3428 10.3358H95.0368L95.7208 7.99577L98.3848 0.759766H100.347L98.4208 7.04177L96.1888 12.9998Z" fill="white"/>
<path d="M77.6504 12.9998V0.759766H80.5304V12.9998H77.6504ZM79.7564 12.9998V10.7138H86.4344V12.9998H79.7564ZM79.7564 3.04577V0.759766H86.4344V3.04577H79.7564ZM79.7564 7.85177V5.61977H85.7324V7.85177H79.7564Z" fill="white"/>
<path d="M69.7347 13.2887C68.4627 13.2887 67.3707 13.0307 66.4587 12.5147C65.5467 11.9987 64.8387 11.2667 64.3347 10.3187C63.8427 9.35866 63.5967 8.21866 63.5967 6.89866C63.5967 5.57866 63.8427 4.43866 64.3347 3.47866C64.8387 2.50666 65.5467 1.76266 66.4587 1.24666C67.3707 0.730656 68.4627 0.472656 69.7347 0.472656C70.9947 0.472656 72.0807 0.730656 72.9927 1.24666C73.9047 1.76266 74.6067 2.50666 75.0987 3.47866C75.6027 4.43866 75.8547 5.57866 75.8547 6.89866C75.8547 8.21866 75.6027 9.35866 75.0987 10.3187C74.6067 11.2667 73.9047 11.9987 72.9927 12.5147C72.0807 13.0307 70.9947 13.2887 69.7347 13.2887ZM69.7347 10.9307C70.3947 10.9307 70.9587 10.7687 71.4267 10.4447C71.9067 10.1207 72.2727 9.65866 72.5247 9.05866C72.7767 8.44666 72.9027 7.72666 72.9027 6.89866C72.9027 6.05866 72.7767 5.33866 72.5247 4.73866C72.2727 4.12666 71.9067 3.65866 71.4267 3.33466C70.9587 2.99866 70.3947 2.83066 69.7347 2.83066C69.0627 2.83066 68.4867 2.99866 68.0067 3.33466C67.5387 3.65866 67.1787 4.12666 66.9267 4.73866C66.6747 5.33866 66.5487 6.05866 66.5487 6.89866C66.5487 7.72666 66.6747 8.44666 66.9267 9.05866C67.1787 9.65866 67.5387 10.1207 68.0067 10.4447C68.4867 10.7687 69.0627 10.9307 69.7347 10.9307Z" fill="white"/>
<path d="M56.296 12.9998V0.759766H59.194V12.9998H56.296ZM52.498 3.11777V0.759766H62.9921V3.11777H52.498Z" fill="white"/>
<path d="M44.962 3.91066C44.962 4.23466 45.064 4.49266 45.268 4.68466C45.472 4.87666 45.742 5.03266 46.078 5.15266C46.426 5.27266 46.81 5.37466 47.23 5.45866C47.662 5.53066 48.106 5.61466 48.562 5.71066C49.018 5.80666 49.456 5.93266 49.876 6.08866C50.308 6.24466 50.698 6.45466 51.046 6.71866C51.394 6.98266 51.664 7.32466 51.856 7.74466C52.06 8.16466 52.162 8.68666 52.162 9.31066C52.162 10.1507 51.946 10.8707 51.514 11.4707C51.094 12.0587 50.512 12.5087 49.768 12.8207C49.024 13.1327 48.172 13.2887 47.212 13.2887C46.252 13.2887 45.388 13.1387 44.62 12.8387C43.864 12.5387 43.24 12.0827 42.748 11.4707C42.268 10.8587 41.956 10.0907 41.812 9.16666H44.854C44.974 9.76666 45.238 10.2287 45.646 10.5527C46.054 10.8767 46.582 11.0387 47.23 11.0387C47.89 11.0387 48.382 10.9187 48.706 10.6787C49.042 10.4267 49.21 10.0907 49.21 9.67066C49.21 9.33466 49.108 9.05866 48.904 8.84266C48.7 8.62666 48.424 8.45866 48.076 8.33866C47.74 8.20666 47.356 8.09866 46.924 8.01466C46.504 7.91866 46.066 7.81666 45.61 7.70866C45.154 7.60066 44.71 7.46866 44.278 7.31266C43.858 7.15666 43.474 6.95266 43.126 6.70066C42.778 6.43666 42.502 6.10666 42.298 5.71066C42.094 5.30266 41.992 4.79266 41.992 4.18066C41.992 3.49666 42.178 2.87266 42.55 2.30866C42.922 1.74466 43.456 1.30066 44.152 0.976656C44.86 0.640656 45.712 0.472656 46.708 0.472656C47.56 0.472656 48.352 0.616657 49.084 0.904656C49.816 1.18066 50.422 1.61266 50.902 2.20066C51.394 2.78866 51.7 3.55666 51.82 4.50466H48.742C48.622 3.89266 48.382 3.44266 48.022 3.15466C47.662 2.86666 47.188 2.72266 46.6 2.72266C46.096 2.72266 45.694 2.83066 45.394 3.04666C45.106 3.26266 44.962 3.55066 44.962 3.91066Z" fill="white"/>
<path d="M30.6641 12.9998V0.759766H33.5441V12.9998H30.6641ZM36.2441 12.9998H32.7701V10.7138H36.1721C36.7121 10.7138 37.1261 10.5818 37.4141 10.3178C37.7021 10.0538 37.8461 9.69977 37.8461 9.25577C37.8461 8.83577 37.6961 8.49377 37.3961 8.22977C37.0961 7.95377 36.6581 7.81577 36.0821 7.81577H32.7701V5.72777H35.5061C36.0581 5.72777 36.4661 5.60777 36.7301 5.36777C37.0061 5.11577 37.1441 4.79777 37.1441 4.41377C37.1441 3.99377 37.0061 3.66377 36.7301 3.42377C36.4661 3.17177 36.0761 3.04577 35.5601 3.04577H32.7701V0.759766H35.6321C37.0121 0.759766 38.1041 1.07777 38.9081 1.71377C39.7121 2.33776 40.1141 3.17776 40.1141 4.23377C40.1141 4.92977 39.8981 5.51177 39.4661 5.97977C39.0461 6.43577 38.4761 6.74177 37.7561 6.89777V6.28577C38.7281 6.42977 39.4781 6.77176 40.0061 7.31177C40.5341 7.83977 40.7981 8.52977 40.7981 9.38177C40.7981 10.5338 40.4021 11.4278 39.6101 12.0638C38.8181 12.6878 37.6961 12.9998 36.2441 12.9998Z" fill="white"/>
<path d="M20.0996 12.9998V0.759766H22.9796V12.9998H20.0996ZM22.2056 12.9998V10.7138H28.8836V12.9998H22.2056ZM22.2056 3.04577V0.759766H28.8836V3.04577H22.2056ZM22.2056 7.85177V5.61977H28.1816V7.85177H22.2056Z" fill="white"/>
<path d="M11.8079 12.9998L9.80993 5.96177L9.39593 4.14377H9.62993L9.21593 5.96177L7.23593 12.9998H3.99593L0.37793 0.759766H3.45593L5.41793 8.78777L5.86793 10.7678H5.63393L6.06593 8.78777L8.33393 0.759766H10.8539L13.1039 8.78777L13.5539 10.7678H13.3199L13.7519 8.78777L15.7139 0.759766H18.6299L15.0119 12.9998H11.8079Z" fill="white"/>
</svg>
